# xmcd
#
# Track frame offsets: 
#        150
#        15177
#        30030
#        41776
#        61112
#        76947
#        93742
#        110835
#        127015
#        142600
#        158322
#        175012
#        194285
#        209253
#        225308
#        241025
#        257719
#        272927
#        287850
#        305895
#        322502
#        341016
#
# Disc length: 4793 seconds
#
# Revision: 0
# Processed by: cddbd v1.5.2PL0 Copyright (c) Steve Scherf et al.
# Submitted via: ExactAudioCopy v1.0b3
#
DISCID=1b12b716
DTITLE=フランク永井 - ザ・カバーズ (歌謡曲・演歌) Disc 2 VICL-64232-33
DYEAR=1900
DGENRE=JPop
TTITLE0=見上げてごらん夜の星を
TTITLE1=そっとおやすみ
TTITLE2=赤坂の夜は更けて
TTITLE3=抱擁
TTITLE4=ブランデーグラス
TTITLE5=東京ブルース 
TTITLE6=赤いグラス 
TTITLE7=昔の名前で出ています
TTITLE8=酒場にて
TTITLE9=くちなしの花 
TTITLE10=みちづれ 
TTITLE11=銀座の恋の物語
TTITLE12=夜霧よ今夜も有難う 
TTITLE13=今日でお別れ 
TTITLE14=別れの朝 
TTITLE15=ヘッドライト 
TTITLE16=すきま風 
TTITLE17=酒と泪と男と女 
TTITLE18=氷雨 
TTITLE19=もしもピアノが弾けたなら 
TTITLE20=青葉城恋唄 
TTITLE21=いい日旅立ち 
EXTD=
EXTT0=
EXTT1=
EXTT2=
EXTT3=
EXTT4=
EXTT5=
EXTT6=
EXTT7=
EXTT8=
EXTT9=
EXTT10=
EXTT11=
EXTT12=
EXTT13=
EXTT14=
EXTT15=
EXTT16=
EXTT17=
EXTT18=
EXTT19=
EXTT20=
EXTT21=
PLAYORDER=
